<?xml version="1.0" encoding="UTF-8"?>
<svg version="1.1" xmlns="http://www.w3.org/2000/svg" width="512" height="512">
<path d="M0 0 C5.8043687 3.13480218 8.56634568 8.08428065 10.546875 14.23046875 C11.14164157 17.71351956 11.55741419 21.19452005 11.97265625 24.703125 C14.16986861 38.20028664 22.64573567 49.32432487 33.546875 57.23046875 C46.71139087 65.31427909 46.71139087 65.31427909 61.30859375 66.546875 C63.96348422 65.52997937 63.96348422 65.52997937 66.35546875 64.30859375 C70.80805805 62.11801506 74.78872765 62.06817592 79.734375 62.04296875 C80.74238159 62.03003784 80.74238159 62.03003784 81.77075195 62.0168457 C85.65581988 62.02199521 88.64779104 62.48069797 92.234375 63.91796875 C94.33425549 64.60670338 94.33425549 64.60670338 96.546875 64.23046875 C99.74553198 61.89988387 102.40964834 59.24353641 105.1953125 56.4453125 C120.38940115 41.38275477 149.52276932 24.70806136 171.34765625 24.16015625 C172.43626953 24.19496094 172.43626953 24.19496094 173.546875 24.23046875 C173.753125 23.42609375 173.959375 22.62171875 174.171875 21.79296875 C178.03219606 11.79122781 184.44118347 5.5055468 193.984375 0.85546875 C202.46762909 -2.26511004 213.43525041 -2.2627738 221.984375 0.66796875 C230.58195947 4.79774864 238.3319828 12.25720548 241.66796875 21.25390625 C243.78673056 24.61044784 245.21284499 25.22042576 248.99365234 26.17993164 C249.71246582 26.34098389 250.4312793 26.50203613 251.171875 26.66796875 C257.60146988 28.33425548 263.76608624 30.2902196 269.921875 32.79296875 C270.64068848 33.07390381 271.35950195 33.35483887 272.10009766 33.64428711 C275.90864029 35.21829566 278.62777017 36.48640386 280.546875 40.23046875 C280.734375 43.98046875 280.734375 43.98046875 280.546875 47.23046875 C281.2275 47.47796875 281.908125 47.72546875 282.609375 47.98046875 C285.01899398 49.00583853 286.92339988 50.08596738 289.109375 51.48046875 C290.24375 52.05796875 291.378125 52.63546875 292.546875 53.23046875 C294.6467573 52.47221671 294.6467573 52.47221671 296.546875 51.23046875 C301.69178992 51.52073193 304.31698665 53.22559301 308.171875 56.54296875 C309.09226562 57.32285156 310.01265625 58.10273437 310.9609375 58.90625 C313.23460465 60.9498028 315.41348437 63.04199057 317.546875 65.23046875 C318.16691406 65.01390625 318.78695313 64.79734375 319.42578125 64.57421875 C330.74533752 61.01523163 341.15266098 60.86226298 352.140625 65.38671875 C358.80206985 67.72255006 365.35044363 64.4922021 371.45703125 61.8046875 C385.39546231 54.70331238 395.11723006 43.88992771 400.2890625 29.109375 C401.0753815 26.19999469 401.53644729 23.30375785 401.9609375 20.3203125 C403.1259871 12.35255806 404.25121494 6.39599532 410.984375 1.29296875 C416.52080894 -1.82192212 422.39480325 -1.71423141 428.546875 -0.76953125 C433.68365133 1.07256706 437.29428675 4.11431607 439.7421875 9.0859375 C449.46505764 34.9978584 444.95222128 65.28526686 434.546875 90.23046875 C430.12111641 99.80316098 424.48381402 108.28817625 417.546875 116.23046875 C416.72123047 117.25333984 416.72123047 117.25333984 415.87890625 118.296875 C409.0023982 126.6434204 399.98764607 133.93948716 390.546875 139.23046875 C389.886875 139.23046875 389.226875 139.23046875 388.546875 139.23046875 C388.47210938 139.83632812 388.39734375 140.4421875 388.3203125 141.06640625 C387.05850938 149.10730848 384.14488667 156.33641589 377.671875 161.54296875 C374.5686711 165.46760898 375.3592751 168.84987635 375.5703125 173.71484375 C375.53417783 179.13504498 374.10843237 184.07175243 372.546875 189.23046875 C373.11535156 189.59398437 373.68382812 189.9575 374.26953125 190.33203125 C386.74617061 198.45538576 395.09741887 207.61424459 399.546875 222.23046875 C402.40249289 236.39356685 400.64129782 250.19912141 392.859375 262.48046875 C391.76220734 264.06866005 390.65971304 265.65321799 389.546875 267.23046875 C388.31630166 269.17783803 388.31630166 269.17783803 388.96484375 271.28515625 C391.09522511 282.06574381 390.75350306 294.4530055 385.546875 304.23046875 C385.20785156 304.89175781 384.86882812 305.55304688 384.51953125 306.234375 C381.2665098 311.59433562 376.23836153 314.80646873 370.546875 317.23046875 C367.19557855 317.92352597 363.96590714 318.21591968 360.546875 318.23046875 C360.546875 320.96746926 360.59762389 322.71091906 361.546875 325.23046875 C363.10269394 326.71330035 363.10269394 326.71330035 365.08203125 327.97265625 C383.99090686 341.44770483 398.81102226 361.28718216 403.546875 384.23046875 C404.65354939 391.31029428 404.724766 398.29578897 404.75 405.453125 C404.75570007 406.71257431 404.76140015 407.97202362 404.76727295 409.26963806 C404.77668739 411.92304082 404.78360352 414.57633143 404.78710938 417.22973633 C404.79260846 420.61442034 404.81669436 423.99870506 404.84508133 427.38326359 C404.86826317 430.63568661 404.87015891 433.88813095 404.875 437.140625 C404.8935202 438.95180565 404.8935202 438.95180565 404.91241455 440.79957581 C404.88938796 449.50698955 403.84680051 455.75054536 397.546875 462.23046875 C391.66228075 465.89199406 386.3309367 466.76791959 379.609375 465.29296875 C378.25212128 464.95082299 376.89670249 464.60082958 375.546875 464.23046875 C375.6190625 464.813125 375.69125 465.39578125 375.765625 465.99609375 C377.14146821 478.14937539 378.12320897 490.06278513 370.796875 500.54296875 C366.30507363 506.04653726 361.43298898 509.41511857 354.546875 511.23046875 C350.60884221 511.53145281 346.67927073 511.51313934 342.73126221 511.50462341 C341.53262692 511.50986009 340.33399164 511.51509677 339.09903407 511.52049214 C335.7797658 511.53288705 332.46070954 511.536336 329.14143276 511.53589523 C325.55847178 511.53754606 321.97554914 511.5506175 318.39260864 511.56208801 C310.56196426 511.58491614 302.73134701 511.59285619 294.90067387 511.59791446 C290.00894073 511.60117387 285.11721545 511.6076978 280.22548676 511.61491585 C266.67488992 511.63447852 253.12430037 511.65088481 239.57368851 511.65379238 C238.27356146 511.65407374 238.27356146 511.65407374 236.94716923 511.65436077 C235.19014724 511.65472702 233.43312525 511.65509072 231.67610326 511.65545189 C230.80394622 511.6556347 229.93178917 511.65581751 229.03320312 511.65600586 C227.72336618 511.65627668 227.72336618 511.65627668 226.38706788 511.65655298 C212.23891024 511.66009435 198.09090482 511.68711587 183.94279996 511.72450375 C169.40833407 511.76260451 154.87394369 511.78194998 140.33942676 511.78225189 C132.18233679 511.78283605 124.02542846 511.79130094 115.86838531 511.82024956 C108.92248179 511.84478709 101.97682615 511.85203039 95.03089097 511.83700203 C91.48926296 511.82984283 87.94812422 511.83064688 84.40655136 511.85341263 C80.56095937 511.87789508 76.71606158 511.86333902 72.87042236 511.84519958 C71.7597047 511.85839955 70.64898703 511.87159952 69.50461125 511.88519949 C60.96694099 511.79337761 54.52696537 509.53435897 47.92578125 504.0546875 C47.32636719 503.34957031 46.72695312 502.64445312 46.109375 501.91796875 C45.49191406 501.22058594 44.87445313 500.52320313 44.23828125 499.8046875 C39.83037149 493.09611352 39.10819923 486.94966255 39.296875 479.04296875 C39.30203125 478.16705078 39.3071875 477.29113281 39.3125 476.38867188 C39.36303673 472.22255056 39.50460621 468.2902738 40.546875 464.23046875 C39.92941406 464.39804687 39.31195313 464.565625 38.67578125 464.73828125 C32.52494806 466.21747706 27.47590688 466.73848223 21.546875 464.23046875 C16.52781416 461.07284601 13.92290365 457.67590494 11.546875 452.23046875 C11.15919495 449.18692017 11.15919495 449.18692017 11.14282227 445.92822266 C11.12379601 444.08437485 11.12379601 444.08437485 11.10438538 442.20327759 C11.10732101 440.8845163 11.11025665 439.565755 11.11328125 438.20703125 C11.10871032 436.81903836 11.10340207 435.43104773 11.09739685 434.0430603 C11.08847618 431.13294294 11.09087024 428.22310001 11.10083008 425.31298828 C11.10996703 422.35892247 11.10323224 419.4056505 11.08032227 416.45166016 C10.79610673 379.62470821 10.79610673 379.62470821 19.359375 363.79296875 C19.70774414 363.12740967 20.05611328 362.46185059 20.41503906 361.77612305 C23.27612359 356.44771108 26.50775233 351.74341158 30.546875 347.23046875 C31.18882813 346.49449463 31.18882813 346.49449463 31.84375 345.74365234 C38.440002 338.19828304 45.26790144 330.97233751 53.546875 325.23046875 C54.206875 325.23046875 54.866875 325.23046875 55.546875 325.23046875 C55.546875 322.92046875 55.546875 320.61046875 55.546875 318.23046875 C54.9178125 318.2046875 54.28875 318.17890625 53.640625 318.15234375 C45.33568926 317.60201668 39.60835786 315.71307813 33.796875 309.60546875 C26.29087868 300.42004859 25.02332927 289.71575321 25.546875 278.23046875 C25.82387167 276.8108608 26.11393625 275.39368764 26.421875 273.98046875 C26.55722539 269.91995693 26.5259423 269.72668173 23.984375 266.98046875 C23.43136719 266.41585938 22.87835938 265.85125 22.30859375 265.26953125 C13.90999156 255.54875444 12.02782133 243.50824048 12.23828125 231.140625 C13.40233739 216.39100233 19.74389888 204.72692835 30.90234375 195.1796875 C34.85332547 192.26751634 39.03702955 190.13995651 43.546875 188.23046875 C43.0725 187.05484375 42.598125 185.87921875 42.109375 184.66796875 C40.58367283 180.25183081 40.35464827 176.26374516 40.234375 171.60546875 C39.94969474 165.76661852 39.42565155 162.87571647 35.17578125 158.90234375 C31.25249441 154.87556493 28.83290631 149.23268789 28.046875 143.73046875 C27.881875 142.90546875 27.716875 142.08046875 27.546875 141.23046875 C25.89356398 140.53133723 24.22334621 139.87208119 22.546875 139.23046875 C-3.65967821 123.22512417 -20.81040998 99.01983293 -28.44921875 69.36328125 C-32.80983341 49.95958924 -34.84003454 25.25258379 -25.5546875 6.89453125 C-19.92807886 -1.60523925 -9.16756204 -2.87581166 0 0 Z " fill="#020201" transform="translate(49.453125,0.76953125)"/>
<path d="M0 0 C0.01417969 1.258125 0.02835937 2.51625 0.04296875 3.8125 C0.41755524 20.11821807 2.81295235 32.8652109 13 46 C16.9126949 51.78048341 20.59865607 57.42790083 23 64 C23.391875 65.03125 23.78375 66.0625 24.1875 67.125 C25.93106392 75.44045868 25.98990709 83.32205106 22.36328125 91.09765625 C20.48649335 93.71655512 18.73509307 95.27117907 16 97 C12.16518691 97.50019301 8.45822653 97.50033419 4.59375 97.53125 C1.02607263 97.82900741 1.02607263 97.82900741 -1.93359375 99.26953125 C-5.33729688 103.76705202 -4.62250914 108.70771767 -4.5625 114.1875 C-4.48179883 124.77176835 -5.50023281 133.00024833 -13 141 C-17.0178264 143.0089132 -21.64459103 142.62623108 -26 142 C-28.74078553 140.64148925 -31.17267538 139.05159059 -33.71484375 137.35546875 C-37.03062703 135.3886708 -39.25578821 135.19242491 -43 136 C-47.06960046 139.02853988 -48.81450084 142.48919053 -50.91015625 146.94140625 C-53.88199783 152.55488478 -57.90619758 156.92810718 -64 159 C-70.70262283 159.85112671 -70.70262283 159.85112671 -73.71484375 157.875 C-74.26269531 157.42125 -74.81054688 156.9675 -75.375 156.5 C-78.99986188 153.58927531 -81.89640783 153.35164141 -86.45898438 153.47412109 C-91.04478305 154.4231805 -93.24410079 157.53215817 -96.0625 161.0625 C-97.26370757 162.45054048 -98.46940945 163.83470498 -99.6796875 165.21484375 C-100.25041992 165.87597168 -100.82115234 166.53709961 -101.40917969 167.21826172 C-110.26419146 177.13598362 -123.83736567 183.05748682 -136.99511719 184.16845703 C-154.1873513 185.11391123 -169.07593943 181.21965949 -182.3125 169.625 C-186.24884978 165.893802 -189.84181176 161.91882344 -193.30859375 157.75 C-195.75670736 155.21707876 -197.79402406 155.01980538 -201.25 154.6875 C-205.11780313 155.00981693 -206.95229203 156.06758244 -210.1796875 158.09375 C-213.62135965 159.80720051 -216.19577084 159.48307672 -220 159 C-228.03727762 154.98136119 -232.26806294 148.14523014 -235.7265625 140.13671875 C-237.22472312 137.62293391 -238.27850162 136.98160915 -241 136 C-246.07092824 135.18865148 -248.7546116 136.25813831 -252.9375 138.9375 C-257.55238632 141.88570507 -260.48820509 143.1837265 -266 143 C-271.22040783 140.38979608 -274.63732728 136.79706505 -277.1875 131.5625 C-278.60923072 127.07858002 -279.06569245 122.9005532 -278.921875 118.21484375 C-278.89609375 117.35439453 -278.8703125 116.49394531 -278.84375 115.60742188 C-278.78109141 113.8229575 -278.70288135 112.03897344 -278.609375 110.25585938 C-278.50445813 105.88541613 -278.57382292 103.65248041 -281.015625 99.9140625 C-284.71650572 97.54046099 -287.73766785 97.36279123 -292 97.4375 C-296.188182 97.48772727 -299.24337958 97.48530186 -302.88671875 95.1484375 C-307.76785696 90.18609736 -308.22855973 85.63770014 -308.4375 78.875 C-308.11506093 65.25194948 -303.1308349 55.61590633 -295.390625 44.73828125 C-287.84054509 33.89963561 -283.92323951 22.13696182 -283.375 9 C-283.25125 6.36 -283.1275 3.72 -283 1 C-277.72 1.33 -272.44 1.66 -267 2 C-266.773125 4.000625 -266.54625 6.00125 -266.3125 8.0625 C-264.44851839 21.58332267 -264.44851839 21.58332267 -258 33 C-254.40588208 33.46879799 -252.64835963 33.44361448 -249.625 31.375 C-247.51886579 28.29680385 -247.74246136 26.69434739 -248 23 C-248.90441236 19.74573052 -250.00842193 16.6009624 -251.125 13.4140625 C-252.15080724 9.41158247 -252.05954492 6.12295418 -252 2 C-241.69058399 1.79118425 -231.38167338 1.63141314 -221.07057095 1.53369045 C-216.28220709 1.48677953 -211.49529305 1.42319006 -206.70776367 1.32104492 C-202.08459878 1.22302744 -197.4628252 1.1693965 -192.83870125 1.14610481 C-191.07750609 1.12951439 -189.31638455 1.09711366 -187.55578423 1.04842949 C-173.71468512 0.68102624 -173.71468512 0.68102624 -169.41435242 3.98893738 C-167.66301317 6.25033413 -166.34911363 8.4874765 -165 11 C-156.47919124 17.79412505 -147.74342486 19.98364294 -137 19 C-127.16369733 17.27372309 -120.70127608 13.34811741 -114 6 C-113.61986252 5.30360413 -113.23972504 4.60720825 -112.84806824 3.88970947 C-111 2 -111 2 -107.64009094 1.51898193 C-106.22923668 1.50738308 -104.81809738 1.51802958 -103.4074707 1.54589844 C-102.63650055 1.54531433 -101.8655304 1.54473022 -101.07119751 1.54412842 C-98.52226776 1.54691571 -95.97450674 1.57803669 -93.42578125 1.609375 C-91.65887593 1.61683513 -89.89196233 1.62252914 -88.12504578 1.62652588 C-83.47400071 1.64180023 -78.82345511 1.68109736 -74.17260742 1.7253418 C-69.42698931 1.76625579 -64.68129051 1.7845286 -59.93554688 1.8046875 C-50.62347844 1.84759003 -41.31178075 1.91586301 -32 2 C-31.98791778 3.43577015 -31.97931274 4.87156984 -31.97216797 6.30737305 C-31.96700165 7.10692917 -31.96183533 7.90648529 -31.95651245 8.73027039 C-32.16767238 19.75126268 -37.37756908 31.54594755 -44.875 39.5 C-53.15396867 47.08643136 -62.73781294 49.36700448 -73.75390625 49.29003906 C-79.12462658 48.81016423 -83.69890211 46.84114486 -88.625 44.75 C-106.36395615 37.65220294 -123.29858865 34.76617272 -142.375 34.75 C-143.08931183 34.74932526 -143.80362366 34.74865051 -144.5395813 34.74795532 C-155.59705326 34.76453742 -166.24439965 35.25987026 -177 38 C-177.71639648 38.18224121 -178.43279297 38.36448242 -179.17089844 38.55224609 C-186.57434678 40.49479929 -193.64426099 42.80249592 -200.6875 45.8125 C-209.25290756 49.19583599 -217.93579063 49.58233046 -226.5 46 C-227.28503906 45.63777344 -228.07007813 45.27554688 -228.87890625 44.90234375 C-231.73554402 43.68708901 -233.94758771 43.47885644 -237 44 C-238.73644989 45.18396037 -238.73644989 45.18396037 -240 47 C-240.36146457 49.28330101 -240.36146457 49.28330101 -240.1875 51.6875 C-240.16042969 52.49574219 -240.13335937 53.30398438 -240.10546875 54.13671875 C-240.05326172 55.05904297 -240.05326172 55.05904297 -240 56 C-238.33374851 56.66770367 -236.66698318 57.33412517 -235 58 C-233.71996094 58.52980469 -233.71996094 58.52980469 -232.4140625 59.0703125 C-217.44071812 64.73250155 -203.7254739 61.89987283 -189.25 56.5625 C-164.60667035 47.71442326 -137.57896451 45.72152689 -112 52 C-110.5459375 52.32484375 -110.5459375 52.32484375 -109.0625 52.65625 C-103.63229873 53.98222938 -98.5388103 55.94491133 -93.375 58.0625 C-81.14947308 63.05012653 -67.84786358 65.68309531 -55 61 C-54.07703125 60.68160156 -53.1540625 60.36320312 -52.203125 60.03515625 C-39.94954803 55.41673955 -32.10437047 48.56380745 -26 37 C-25.46503906 35.99582031 -24.93007813 34.99164063 -24.37890625 33.95703125 C-19.3556975 23.47217908 -17.72675123 12.41143853 -16 1 C-13.89594609 0.83191581 -11.79175242 0.66558052 -9.6875 0.5 C-8.51574219 0.4071875 -7.34398437 0.314375 -6.13671875 0.21875 C-4.094806 0.07635011 -2.0468721 0 0 0 Z " fill="#FAB85F" transform="translate(399,206)"/>
<path d="M0 0 C4.92005817 0.42171927 6.72182424 2.44458979 10 6 C11.75192906 8.14455613 13.35835337 10.24040807 14.9375 12.5 C15.36095703 13.03625 15.78441406 13.5725 16.22070312 14.125 C19.06903274 18.2680249 19.15136708 21.23592581 18.43359375 26.18359375 C17.98573869 28.46183425 17.5076856 30.73434132 17 33 C16.78754639 34.01916504 16.57509277 35.03833008 16.35620117 36.08837891 C2.68902974 98.9664554 2.68902974 98.9664554 -12 121 C-14.96045499 121.28608931 -17.7107713 121.37802086 -20.67236328 121.34057617 C-22.0187941 121.34123329 -22.0187941 121.34123329 -23.39242554 121.34190369 C-26.36860676 121.33980845 -29.34422931 121.31644287 -32.3203125 121.29296875 C-34.38011365 121.28737541 -36.43991878 121.28310408 -38.49972534 121.28010559 C-43.92827318 121.26863623 -49.35658125 121.23915105 -54.78503418 121.20599365 C-60.3215002 121.17533781 -65.85800487 121.16160986 -71.39453125 121.14648438 C-82.26312633 121.11428336 -93.13154325 121.06306178 -104 121 C-108.97991232 108.46217758 -113.9201579 95.94786616 -118.125 83.125 C-118.43150482 82.19717712 -118.43150482 82.19717712 -118.74420166 81.25061035 C-124.00058547 65.31730741 -128.6538076 49.20851982 -132.5 32.875 C-132.67257324 32.17084961 -132.84514648 31.46669922 -133.02294922 30.74121094 C-134.38490743 24.63402921 -134.22263819 19.71792307 -130.96875 14.32421875 C-130.15844337 13.10351411 -129.33526512 11.89126444 -128.5 10.6875 C-127.67658492 9.46257448 -126.85364617 8.23732858 -126.03125 7.01171875 C-125.3609375 6.01785156 -124.690625 5.02398437 -124 4 C-123.67 3.34 -123.34 2.68 -123 2 C-120.3125 0.9375 -120.3125 0.9375 -117 1 C-114.375 3.875 -114.375 3.875 -112.8671875 5.8359375 C-105.46117324 14.41947703 -95.04970069 19.27664068 -85 24 C-85 29.28 -85 34.56 -85 40 C-86.340625 40.37125 -87.68125 40.7425 -89.0625 41.125 C-95.44246772 43.27509936 -99.48964948 46.4665088 -102.9375 52.25 C-105.15855181 60.08900638 -104.745459 66.53614316 -100.74609375 73.73046875 C-96.69235137 78.99942696 -90.92046809 82.00304599 -84.375 82.875 C-83.26125 82.91625 -82.1475 82.9575 -81 83 C-80.85304687 83.845625 -80.70609375 84.69125 -80.5546875 85.5625 C-78.71630327 94.86007542 -76.29211789 100.4962303 -68.9375 106.5 C-63.23180403 109.35920177 -55.85922821 108.88327406 -49.78125 107.4921875 C-43.38074696 105.04989029 -39.61626684 100.19324122 -36.78125 94.203125 C-35.48431429 90.5457663 -35.17854751 86.85662627 -35 83 C-34.02160156 82.83564453 -34.02160156 82.83564453 -33.0234375 82.66796875 C-24.07229451 81.04408883 -18.30485007 78.60304245 -13 71 C-10.93613719 64.80841156 -10.76065578 57.36798887 -13.0234375 51.21875 C-16.93698673 44.73220432 -22.1368233 42.270108 -29.2734375 40.40625 C-29.84320313 40.2721875 -30.41296875 40.138125 -31 40 C-31.9217367 28.41245295 -31.9217367 28.41245295 -30 23 C-26.32685241 19.59361732 -22.40324215 17.89935451 -17.85693359 15.91113281 C-10.80562426 12.45130025 -4.65180867 6.25588062 0 0 Z " fill="#E07657" transform="translate(315,376)"/>
<path d="M0 0 C5.80925668 3.31621535 9.63707278 8.13074499 11.75 14.4375 C12.00726891 17.59164143 12.00726891 17.59164143 12.01742554 21.21101379 C12.02195665 21.87934398 12.02648776 22.54767416 12.03115618 23.23625678 C12.04378385 25.46852923 12.0421809 27.70055719 12.04052734 29.93286133 C12.04651366 31.53636488 12.05331944 33.13986554 12.06088257 34.74336243 C12.07854015 39.09471983 12.08323787 43.44599855 12.08451414 47.79738832 C12.08593653 50.51767623 12.09020781 53.2379442 12.09550858 55.95822716 C12.11400863 65.45336551 12.12217929 74.94844774 12.12060547 84.44360352 C12.11940434 93.28628624 12.14050108 102.12872478 12.1720928 110.97134572 C12.19826955 118.56982182 12.20897217 126.16821824 12.20769465 133.76673907 C12.20718539 138.30203156 12.21284842 142.83710704 12.23405075 147.37235451 C12.25345656 151.63979534 12.25354175 155.9068127 12.23901749 160.17426872 C12.23693112 161.73671209 12.24162003 163.29918213 12.2537384 164.8615799 C12.32003402 174.00420835 12.25163951 181.22083498 6.00390625 188.4609375 C-0.59116707 193.73090371 -5.74850815 195.31225157 -14.25 194.4375 C-20.90919214 192.05024244 -25.34415506 187.44736023 -28.40855408 181.09684753 C-30.29335838 175.14001829 -29.80256345 168.70276588 -29.76757812 162.50976562 C-29.77300438 160.89596425 -29.78012986 159.28216784 -29.78881836 157.66838074 C-29.80699492 153.30262962 -29.80000776 148.93725821 -29.78730202 144.57150078 C-29.77714488 139.99349857 -29.78657522 135.41552795 -29.79284668 130.83752441 C-29.8001152 123.15090117 -29.7905563 115.46443188 -29.77148438 107.77783203 C-29.74971714 98.90268507 -29.75676908 90.02790572 -29.77879 81.15276766 C-29.79696671 73.52024082 -29.79949123 65.88782438 -29.78903532 58.25528288 C-29.78281286 53.70217587 -29.78193032 49.14924142 -29.79518127 44.59614563 C-29.80677229 40.31467369 -29.79865507 36.03367376 -29.77560425 31.75225258 C-29.77033445 30.18498326 -29.77180122 28.61767393 -29.78065491 27.05042076 C-29.86750947 10.10818616 -29.86750947 10.10818616 -23.21484375 3.37890625 C-22.54582031 2.92386719 -21.87679687 2.46882813 -21.1875 2 C-20.51589844 1.52691406 -19.84429687 1.05382812 -19.15234375 0.56640625 C-13.4302047 -2.82927791 -5.98580099 -2.69880044 0 0 Z " fill="#E8E7E9" transform="translate(266.25,16.5625)"/>
<path d="M0 0 C10.30941601 -0.20881575 20.61832662 -0.36858686 30.92942905 -0.46630955 C35.71779291 -0.51322047 40.50470695 -0.57680994 45.29223633 -0.67895508 C49.91540122 -0.77697256 54.5371748 -0.8306035 59.16129875 -0.85389519 C60.92249391 -0.87048561 62.68361545 -0.90288634 64.44421577 -0.95157051 C78.28531488 -1.31897376 78.28531488 -1.31897376 82.58564758 1.98893738 C84.33698683 4.25033413 85.65088637 6.4874765 87 9 C95.52080876 15.79412505 104.25657514 17.98364294 115 17 C124.83630267 15.27372309 131.29872392 11.34811741 138 4 C138.38013748 3.30360413 138.76027496 2.60720825 139.15193176 1.88970947 C141 0 141 0 144.35990906 -0.48101807 C145.77076332 -0.49261692 147.18190262 -0.48197042 148.5925293 -0.45410156 C149.36349945 -0.45468567 150.1344696 -0.45526978 150.92880249 -0.45587158 C153.47773224 -0.45308429 156.02549326 -0.42196331 158.57421875 -0.390625 C160.34112407 -0.38316487 162.10803767 -0.37747086 163.87495422 -0.37347412 C168.52599929 -0.35819977 173.17654489 -0.31890264 177.82739258 -0.2746582 C182.57301069 -0.23374421 187.31870949 -0.2154714 192.06445312 -0.1953125 C201.37652156 -0.15240997 210.68821925 -0.08413699 220 0 C220.01208222 1.43577015 220.02068726 2.87156984 220.02783203 4.30737305 C220.03299835 5.10692917 220.03816467 5.90648529 220.04348755 6.73027039 C219.83232762 17.75126268 214.62243092 29.54594755 207.125 37.5 C198.84603133 45.08643136 189.26218706 47.36700448 178.24609375 47.29003906 C172.87537342 46.81016423 168.30109789 44.84114486 163.375 42.75 C145.63604385 35.65220294 128.70141135 32.76617272 109.625 32.75 C108.91068817 32.74932526 108.19637634 32.74865051 107.4604187 32.74795532 C96.40294674 32.76453742 85.75560035 33.25987026 75 36 C74.28360352 36.18224121 73.56720703 36.36448242 72.82910156 36.55224609 C65.42565322 38.49479929 58.35573901 40.80249592 51.3125 43.8125 C42.74709244 47.19583599 34.06420937 47.58233046 25.5 44 C24.71625 43.63648438 23.9325 43.27296875 23.125 42.8984375 C20.30142507 41.70464663 18.01851808 41.54722229 15 42 C14.34 42.66 13.68 43.32 13 44 C10.28340089 43.80395677 9.13878423 43.12556668 7.11328125 41.29296875 C6.51902344 40.59816406 5.92476562 39.90335938 5.3125 39.1875 C4.71050781 38.50042969 4.10851562 37.81335938 3.48828125 37.10546875 C1.98868667 34.98399506 1.28165196 33.57278234 1 31 C1.474375 30.38125 1.94875 29.7625 2.4375 29.125 C4.56370895 26.23335582 4.24224676 24.55295241 4 21 C3.09558764 17.74573052 1.99157807 14.6009624 0.875 11.4140625 C-0.15080724 7.41158247 -0.05954492 4.12295418 0 0 Z " fill="#FDD2BB" transform="translate(147,208)"/>
<path d="M0 0 C0 31.68 0 63.36 0 96 C-33 96 -66 96 -100 96 C-99.12294543 89.86061804 -97.92823455 85.61388529 -95.5625 80.0625 C-95.21123047 79.23564697 -94.85996094 78.40879395 -94.49804688 77.55688477 C-89.0965019 65.25375845 -81.78343684 54.15476394 -73 44 C-72.32710937 43.19433594 -71.65421875 42.38867188 -70.9609375 41.55859375 C-55.12673922 23.1621343 -25.52642336 0 0 0 Z " fill="#DA6541" transform="translate(222,41)"/>
<path d="M0 0 C7.85201767 1.12171681 7.85201767 1.12171681 11.33984375 2.62890625 C12.09330078 2.94150391 12.84675781 3.25410156 13.62304688 3.57617188 C15.1641258 4.23291859 16.70320769 4.89437161 18.24023438 5.56054688 C23.42976979 7.70106404 27.37489674 8.61440682 33 8 C35.4595774 6.66169042 35.4595774 6.66169042 37 5 C38.81618856 6.11903546 40.62785526 7.24541284 42.4375 8.375 C43.44683594 9.00148438 44.45617187 9.62796875 45.49609375 10.2734375 C48 12 48 12 49 14 C49.06996014 15.70702735 49.08440154 17.41668003 49.0625 19.125 C49.05347656 20.03507812 49.04445313 20.94515625 49.03515625 21.8828125 C49.02355469 22.58148438 49.01195312 23.28015625 49 24 C49.53367187 24.21914062 50.06734375 24.43828125 50.6171875 24.6640625 C68.91559197 34.92316796 81.57108735 56.53048573 90.4375 74.75 C90.86289062 75.61294678 91.28828125 76.47589355 91.7265625 77.36499023 C92.12488281 78.20876221 92.52320313 79.05253418 92.93359375 79.921875 C93.28478271 80.66018555 93.63597168 81.39849609 93.99780273 82.15917969 C95.46020349 86.3044891 96.13793169 90.68965845 97 95 C64.99 95 32.98 95 0 95 C0 63.65 0 32.3 0 0 Z " fill="#E17757" transform="translate(293,42)"/>
<path d="M0 0 C0.93715922 1.483338 1.79907474 3.0144669 2.625 4.5625 C6.50752476 11.25487153 11.43974683 16.67292785 19 19 C27.75593853 19.77052259 35.80269097 19.24034804 44 16 C44.74443359 16.97839844 44.74443359 16.97839844 45.50390625 17.9765625 C51.19482084 25.29808071 56.38800013 31.21912201 65 35 C61.93341781 53.8955579 35.36642206 74.4634147 20.91845703 84.93530273 C9.00990438 93.33575785 -3.23329091 100.17291861 -17 105 C-17.98355469 105.350625 -18.96710938 105.70125 -19.98046875 106.0625 C-24.48784149 107.55386114 -27.31464666 108.28727284 -32 107 C-33.68614162 105.31385838 -33.15341821 103.20426153 -33.17700195 100.89208984 C-33.18983719 99.79939789 -33.20267242 98.70670593 -33.21589661 97.5809021 C-33.22697701 95.78901962 -33.22697701 95.78901962 -33.23828125 93.9609375 C-33.246353 92.73275299 -33.25442474 91.50456848 -33.26274109 90.23916626 C-33.27661398 87.62462791 -33.28732169 85.0100712 -33.29516602 82.39550781 C-33.30823795 78.44046697 -33.3560575 74.48606218 -33.40039062 70.53125 C-33.53753311 48.49623776 -31.44092985 30.20216928 -15.48046875 13.5 C-14.66191406 12.675 -13.84335938 11.85 -13 11 C-12.01617823 9.97988835 -11.03313744 8.95902306 -10.05078125 7.9375 C-2.32631804 0 -2.32631804 0 0 0 Z " fill="#D5D4D8" transform="translate(109,343)"/>
<path d="M0 0 C14.95104128 12.29307839 26.4021278 24.78746259 31 44 C31.1761937 44.59359314 31.35238739 45.18718628 31.53392029 45.79876709 C32.11907799 48.56238964 32.11946184 51.13616399 32.11352539 53.96191406 C32.11341209 55.76332855 32.11341209 55.76332855 32.11329651 57.60113525 C32.10813522 58.89291687 32.10297394 60.18469849 32.09765625 61.515625 C32.09579017 62.85512235 32.09436716 64.19462038 32.09336853 65.53411865 C32.08955835 69.05222472 32.07974091 72.57028921 32.06866455 76.08837891 C32.05841817 79.68130939 32.053864 83.27424661 32.04882812 86.8671875 C32.03811725 93.91147529 32.02105887 100.95573493 32 108 C14.92342455 110.78584547 -5.01890596 97.62495026 -18.5 88 C-20.70146134 86.37534918 -22.85939062 84.70385707 -25 83 C-25.5455957 82.56719727 -26.09119141 82.13439453 -26.65332031 81.68847656 C-40.445528 70.62723912 -51.82570246 58.46608714 -62 44 C-62.40605469 43.42604492 -62.81210937 42.85208984 -63.23046875 42.26074219 C-66 38.2497807 -66 38.2497807 -66 36 C-65.3709375 35.74347656 -64.741875 35.48695313 -64.09375 35.22265625 C-55.18158846 31.23634303 -49.83257581 25.39419896 -45 17 C-40.3875 17.76875 -40.3875 17.76875 -38.3046875 19.01171875 C-32.18275864 21.63688485 -23.26058203 20.93159487 -16.9375 19.125 C-8.14903716 15.05229771 -3.9096396 8.57113296 0 0 Z " fill="#E7E6E8" transform="translate(406,342)"/>
<path d="M0 0 C1.47919922 -0.00065712 1.47919922 -0.00065712 2.98828125 -0.00132751 C6.22945341 0.00075308 9.47010047 0.02405007 12.71118164 0.04760742 C14.96561907 0.05320596 17.22006017 0.05747484 19.47450256 0.06047058 C25.39452271 0.07189899 31.31432039 0.10134914 37.23425293 0.13458252 C43.28056835 0.1653265 49.32691988 0.17898517 55.37329102 0.1940918 C67.22691987 0.22622063 79.08032554 0.27897241 90.93383789 0.34057617 C90.93383789 13.87057617 90.93383789 27.40057617 90.93383789 41.34057617 C78.06818185 41.45373823 65.20285878 41.54538571 52.33681679 41.59963703 C46.36196968 41.62568082 40.38748205 41.66098417 34.4128418 41.71777344 C28.64212914 41.77227832 22.87176129 41.80203593 17.100811 41.81496239 C14.90406241 41.82416906 12.70733173 41.84214749 10.51073074 41.86922646 C7.42300547 41.90576164 4.33668748 41.91051122 1.2487793 41.90820312 C-0.09990234 41.93516769 -0.09990234 41.93516769 -1.47583008 41.962677 C-9.22703986 41.90037705 -15.96100246 39.44573582 -21.50366211 33.90307617 C-22.01928711 33.05745117 -22.53491211 32.21182617 -23.06616211 31.34057617 C-23.93241211 29.94838867 -23.93241211 29.94838867 -24.81616211 28.52807617 C-27.08600754 22.73997031 -26.67462592 18.27165429 -24.37866211 12.65307617 C-21.55759086 6.92215869 -18.12576165 3.41448295 -12.14907646 0.95664024 C-8.15756848 -0.22392902 -4.13075702 -0.04846697 0 0 Z " fill="#D3D2D6" transform="translate(131.066162109375,151.659423828125)"/>
<path d="M0 0 C13.03058766 -0.09045154 26.06096602 -0.16380314 39.09179688 -0.20724869 C45.14285976 -0.22810277 51.19369628 -0.25638118 57.24462891 -0.30175781 C63.08664163 -0.34529242 68.92843692 -0.3691535 74.77059937 -0.37950897 C76.99689149 -0.3868866 79.22317203 -0.4012934 81.44937134 -0.42292023 C84.57327781 -0.45205473 87.69629153 -0.45595171 90.8203125 -0.45410156 C92.19380608 -0.47567322 92.19380608 -0.47567322 93.595047 -0.49768066 C100.51001833 -0.45351028 105.81866508 1.19293977 111.05859375 5.81640625 C111.51363281 6.39261719 111.96867187 6.96882812 112.4375 7.5625 C112.91058594 8.14128906 113.38367188 8.72007812 113.87109375 9.31640625 C117.28555057 14.40855466 116.50532688 21.15264609 116 27 C113.68312577 32.0971233 109.53696718 35.76833196 105 39 C102.23482879 39.92172374 100.61556129 40.12375838 97.766922 40.12025452 C96.90455429 40.12162918 96.04218658 40.12300385 95.15368652 40.12442017 C94.21069702 40.12082489 93.26770752 40.11722961 92.29614258 40.11352539 C90.80318916 40.11374443 90.80318916 40.11374443 89.28007507 40.1139679 C85.98487175 40.11327032 82.68972471 40.10548511 79.39453125 40.09765625 C77.11195405 40.09579152 74.82937645 40.09436788 72.54679871 40.09336853 C66.53474831 40.08954767 60.52272202 40.07972104 54.51068115 40.06866455 C48.37756679 40.05844118 42.24444855 40.05386892 36.11132812 40.04882812 C24.07420645 40.03809841 12.037109 40.02050507 0 40 C0 26.8 0 13.6 0 0 Z " fill="#E8E7E9" transform="translate(293,152)"/>
<path d="M0 0 C0.93715922 1.483338 1.79907474 3.0144669 2.625 4.5625 C6.44750869 11.15142084 11.46357867 16.86705057 19 19 C22.44217838 19.23226475 25.86460335 19.18835358 29.3125 19.125 C30.24384766 19.11597656 31.17519531 19.10695313 32.13476562 19.09765625 C34.4234436 19.07418263 36.71158672 19.04134729 39 19 C35.16818049 29.59045594 27.24828172 38.55612542 20 47 C19.29101562 47.83273437 18.58203125 48.66546875 17.8515625 49.5234375 C3.98157337 65.39631314 -12.6158259 77.80056095 -31 88 C-31.33 88 -31.66 88 -32 88 C-32.09972662 81.95349808 -32.17187016 75.90748691 -32.21972656 69.86035156 C-32.23970057 67.80818326 -32.26688947 65.75607083 -32.30175781 63.70410156 C-32.66413044 41.81253141 -32.66413044 41.81253141 -28 32 C-27.31659546 30.53965332 -27.31659546 30.53965332 -26.61938477 29.04980469 C-23.17309716 21.99627826 -18.45731875 16.57595612 -13 11 C-12.52240234 10.50338867 -12.04480469 10.00677734 -11.55273438 9.49511719 C-2.41894105 0 -2.41894105 0 0 0 Z " fill="#E7E6E8" transform="translate(109,343)"/>
<path d="M0 0 C4.75 0.75 4.75 0.75 7 3 C7.41572266 4.33998047 7.41572266 4.33998047 7.83984375 5.70703125 C9.18206067 9.51675806 11.18342367 12.47457632 13.5625 15.6875 C14.01012695 16.29980469 14.45775391 16.91210938 14.91894531 17.54296875 C30.35277209 38.48498106 48.41344033 55.33300513 71.0234375 68.29296875 C73.05704466 69.45922378 75.04943046 70.69962031 77 72 C77.34057617 73.97119141 77.34057617 73.97119141 77.29296875 76.3515625 C77.28330078 77.20234375 77.27363281 78.053125 77.26367188 78.9296875 C77.23853516 79.81914062 77.21339844 80.70859375 77.1875 81.625 C77.16719727 82.97078125 77.16719727 82.97078125 77.14648438 84.34375 C77.11106925 86.56309789 77.06168461 88.78125188 77 91 C61.30389244 94.09948453 42.68945963 81.76628031 30.00390625 73.44921875 C26.56608127 71.09515255 23.25932067 68.59431572 20 66 C19.4544043 65.56719727 18.90880859 65.13439453 18.34667969 64.68847656 C4.554472 53.62723912 -6.82570246 41.46608714 -17 27 C-17.40605469 26.42604492 -17.81210937 25.85208984 -18.23046875 25.26074219 C-21 21.2497807 -21 21.2497807 -21 19 C-20.3709375 18.74347656 -19.741875 18.48695313 -19.09375 18.22265625 C-10.18158846 14.23634303 -4.83257581 8.39419896 0 0 Z " fill="#D6D5D9" transform="translate(361,359)"/>
<path d="M0 0 C0.33 0 0.66 0 1 0 C1.09349423 21.24473559 1.16400418 42.48943718 1.20724869 63.73433685 C1.22786271 73.59900292 1.25596116 83.46354105 1.30175781 93.328125 C1.34166106 101.92738001 1.36744125 110.52654237 1.37635398 119.12588739 C1.38156282 123.67805103 1.3937813 128.22994961 1.42292023 132.7820282 C1.45014448 137.06988444 1.45843089 141.35736735 1.45243073 145.64530182 C1.45352784 147.21581809 1.46144005 148.78634731 1.4768219 150.35678864 C1.56221816 159.52820308 1.52261627 166.75902634 -4.74609375 174.0234375 C-11.34116707 179.29340371 -16.49850815 180.87475157 -25 180 C-31.75192934 177.57949703 -36.05838476 172.95865287 -39.16638184 166.54101562 C-40.91107068 161.2228954 -40.48056449 155.63138993 -40.390625 150.09375 C-40.38315092 148.75997776 -40.37746351 147.42619444 -40.37347412 146.09240723 C-40.35830909 142.60694266 -40.31910919 139.12216055 -40.2746582 135.63696289 C-40.23350594 132.07056913 -40.21542086 128.5040635 -40.1953125 124.9375 C-40.15260362 117.95805561 -40.08446583 110.9790607 -40 104 C-39.25234375 104.42152344 -38.5046875 104.84304687 -37.734375 105.27734375 C-36.74953125 105.82519531 -35.7646875 106.37304688 -34.75 106.9375 C-33.77546875 107.48277344 -32.8009375 108.02804688 -31.796875 108.58984375 C-25.54734732 111.74079276 -18.13701544 112.26617745 -11.421875 110.2109375 C-9.18818485 109.24201892 -7.09485036 108.24031734 -5 107 C-4.31057312 106.68483932 -3.62114624 106.36967865 -2.91082764 106.04496765 C0.28026581 102.62985959 -0.43056374 98.61244283 -0.45410156 94.11254883 C-0.44376389 93.09773941 -0.43342621 92.08292999 -0.42277527 91.03736877 C-0.39323549 87.67709643 -0.3918457 84.3174235 -0.390625 80.95703125 C-0.37565095 78.62960147 -0.35892545 76.30218235 -0.34051514 73.97477722 C-0.2967427 67.84436569 -0.27682051 61.71409752 -0.26177979 55.58355713 C-0.24224441 49.32970671 -0.20027042 43.07601192 -0.16015625 36.82226562 C-0.08474689 24.54822497 -0.03452033 12.27421897 0 0 Z " fill="#D3D2D6" transform="translate(277,31)"/>
<path d="M0 0 C4.17818213 3.52278102 8.13783843 7.1262229 12 11 C13.77944351 12.67971069 15.57139259 14.34626255 17.375 16 C18.32632813 16.87785156 19.27765625 17.75570313 20.2578125 18.66015625 C22.55292088 20.61851796 24.6290414 22.00070944 27.25 23.4375 C30 26 30 26 30.41015625 28.00390625 C30.01524293 38.09789077 25.92642675 48.40160892 23 58 C22.54414006 59.52079414 22.08840209 61.04162485 21.6328125 62.5625 C19.40487364 69.89430637 16.85972082 76.85069796 14 84 C0.8 84 -12.4 84 -26 84 C-25.19869226 79.99346132 -24.23061325 76.58754446 -22.85546875 72.7734375 C-22.21061523 70.97712891 -22.21061523 70.97712891 -21.55273438 69.14453125 C-21.0977256 67.88799572 -20.64264715 66.63148542 -20.1875 65.375 C-19.74857422 64.15425781 -19.30964844 62.93351562 -18.85742188 61.67578125 C-15.29500017 51.77722466 -15.29500017 51.77722466 -13.90673828 48.11962891 C-11.24627895 41.06998921 -9.31482326 33.93401422 -7.5 26.625 C-5.258289 17.65815598 -2.80127755 8.80947218 0 0 Z " fill="#B04D2E" transform="translate(346,413)"/>
<path d="M0 0 C2.76336038 2.76336038 2.90750472 5.79133053 3.625 9.5 C8.07307047 30.74635804 15.6815012 51.2823134 22.8684082 71.72875977 C24.27938177 75.80764537 25.63515004 79.90545011 27 84 C13.8 84 0.6 84 -13 84 C-18.62579014 70.49810367 -18.62579014 70.49810367 -20.3515625 64.43359375 C-20.53713715 63.78858414 -20.72271179 63.14357452 -20.91390991 62.47901917 C-21.49100128 60.4670263 -22.05816381 58.45240266 -22.625 56.4375 C-23.00977148 55.09161226 -23.39518607 53.7459082 -23.78125 52.40039062 C-24.52472351 49.80418619 -25.25763417 47.20572437 -25.98535156 44.60498047 C-26.63198106 42.30754755 -27.29381274 40.01430089 -27.97558594 37.72705078 C-28.25950195 36.75622559 -28.54341797 35.78540039 -28.8359375 34.78515625 C-29.08649902 33.94992432 -29.33706055 33.11469238 -29.59521484 32.25415039 C-30.04603421 29.74364662 -29.93852376 28.36258706 -29 26 C-27.01867211 24.1001364 -25.07279901 22.3941384 -22.9375 20.6875 C-21.74446832 19.70612212 -20.55175906 18.72435215 -19.359375 17.7421875 C-18.77994141 17.27006836 -18.20050781 16.79794922 -17.60351562 16.31152344 C-11.37829506 11.21988445 -5.61701217 5.75146193 0 0 Z " fill="#A14224" transform="translate(168,413)"/>
<path d="M0 0 C1.67542976 0.28604898 3.34385343 0.61781233 5 1 C6.55061774 5.28700198 7.42622116 9.37722632 8.125 13.875 C11.29578399 31.02508505 21.43952702 45.02477189 35.328125 55.33984375 C40.22385216 58.38177949 45.42006861 60.82952752 50.62109375 63.30078125 C54 65 54 65 56 67 C55.48050781 67.66644531 54.96101563 68.33289063 54.42578125 69.01953125 C46.41949118 79.60085731 41.03755234 90.83642968 39.4375 104.125 C39.293125 105.07375 39.14875 106.0225 39 107 C38.01 107.495 38.01 107.495 37 108 C16.26521161 93.1295962 1.79121154 72.35656569 -3 47 C-4.09964973 39.72818432 -4.21604302 32.46819717 -4.25 25.125 C-4.270625 24.01769531 -4.29125 22.91039062 -4.3125 21.76953125 C-4.34691576 14.44757852 -3.52013722 7.90808256 -1 1 C-0.67 0.67 -0.34 0.34 0 0 Z " fill="#E5E4E6" transform="translate(38,15)"/>
<path d="M0 0 C1.9375 0 1.9375 0 4 1 C11.16204515 11.61043726 9.33654251 31.71627089 7.6015625 43.76757812 C6.50022935 49.32083872 4.86362574 54.66006645 3 60 C2.65509521 61.02407959 2.65509521 61.02407959 2.30322266 62.06884766 C-2.40457147 75.80574447 -10.01013719 86.57814312 -20 97 C-20.64324219 97.69480469 -21.28648437 98.38960938 -21.94921875 99.10546875 C-25.16595029 102.48966571 -27.52711322 104.41775434 -32 106 C-32.29390625 104.5459375 -32.29390625 104.5459375 -32.59375 103.0625 C-35.64921203 89.00135578 -41.47631467 76.62320727 -50 65 C-48.42412109 64.25556641 -48.42412109 64.25556641 -46.81640625 63.49609375 C-38.89834672 59.6922923 -31.55194203 55.95399781 -25 50 C-24.24332031 49.33484375 -23.48664063 48.6696875 -22.70703125 47.984375 C-10.17971735 36.31739589 -4.74421212 20.67767497 -2.45703125 4.0390625 C-2 2 -2 2 0 0 Z " fill="#E6E5E7" transform="translate(470,15)"/>
<path d="M0 0 C0.88068649 0.00022659 1.76137299 0.00045319 2.66874695 0.00068665 C3.61570938 0.0161705 4.56267181 0.03165436 5.53833008 0.04760742 C6.51071121 0.05185226 7.48309235 0.05609711 8.48493958 0.06047058 C11.59286099 0.07727302 14.70013567 0.11492838 17.80786133 0.15307617 C19.91397176 0.16812097 22.02009235 0.18180973 24.1262207 0.1940918 C29.29138429 0.2246308 34.4551483 0.28334977 39.62036133 0.34057617 C39.62036133 13.54057617 39.62036133 26.74057617 39.62036133 40.34057617 C33.31782257 40.54759387 27.02711186 40.72653373 20.72387695 40.83496094 C18.58186854 40.88015304 16.44013673 40.94152271 14.29907227 41.01953125 C11.21537117 41.12904988 8.13534314 41.17980911 5.05004883 41.21948242 C4.09669647 41.26593399 3.14334412 41.31238556 2.16110229 41.36024475 C-0.62520345 41.36234815 -2.74466507 41.25706265 -5.37963867 40.34057617 C-11.65531774 34.02205869 -12.69962608 27.07346002 -12.7734375 18.54296875 C-12.64998684 11.58805738 -10.47150348 7.07291281 -6.06669617 1.75566101 C-3.90832675 -0.05475496 -2.79018882 -0.02398443 0 0 Z " fill="#E8E7E9" transform="translate(182.379638671875,151.659423828125)"/>
<path d="M0 0 C0 23.1 0 46.2 0 70 C-14.19 70 -28.38 70 -43 70 C-41.5991033 62.9955165 -40.29118573 57.53745399 -37.375 51.25 C-37.02163574 50.4763208 -36.66827148 49.7026416 -36.30419922 48.90551758 C-31.78192354 39.17009085 -12.60646461 0 0 0 Z " fill="#E27757" transform="translate(222,66)"/>
<path d="M0 0 C2 1 2 1 2.77099609 3.10009766 C3.01930176 4.02870605 3.26760742 4.95731445 3.5234375 5.9140625 C3.81581299 6.96940186 4.10818848 8.02474121 4.40942383 9.11206055 C4.72806396 10.27133057 5.0467041 11.43060059 5.375 12.625 C14.49991289 44.50766376 28.23682663 74.61645645 43.84594727 103.81542969 C44.92688423 105.8615951 45.96508767 107.93017535 47 110 C39.41 110 31.82 110 24 110 C12.4405654 81.28785598 2.59990359 52.0259659 -4.5 21.875 C-4.67257324 21.17084961 -4.84514648 20.46669922 -5.02294922 19.74121094 C-6.20296787 14.44986771 -6.43140688 9.66100885 -3.80859375 4.78515625 C-2.5390625 3.19010417 -1.26953125 1.59505208 0 0 Z " fill="#DB6541" transform="translate(187,387)"/>
<path d="M0 0 C11.97313468 6.57439566 19.41079196 17.82743706 23.4609375 30.66015625 C26.94587955 43.16219051 27.67032485 55.05480931 21.3359375 66.78515625 C20.9028125 67.40390625 20.4696875 68.02265625 20.0234375 68.66015625 C15.15726515 66.35776615 10.43345821 63.59499091 8.02783203 58.58789062 C7.27028306 56.21187144 6.65926053 53.83710651 6.0859375 51.41015625 C1.27460324 33.61034046 -6.65738463 16.21531136 -18.3046875 1.7734375 C-19.9765625 -0.33984375 -19.9765625 -0.33984375 -19.9765625 -2.33984375 C-12.62169947 -4.79146476 -6.87006429 -3.10623814 0 0 Z " fill="#AE4C2E" transform="translate(397.9765625,81.33984375)"/>
<path d="M0 0 C1.18529297 0.02707031 1.18529297 0.02707031 2.39453125 0.0546875 C2.98621094 0.07789062 3.57789063 0.10109375 4.1875 0.125 C4.1875 4.96034363 3.10000114 6.00762668 0.25 9.8125 C-10.52500428 24.79280264 -18.95167426 42.20335959 -22.25 60.4375 C-23.16408528 65.03136448 -24.24073403 67.09833409 -28 69.9375 C-29.24835819 70.70450927 -30.51268426 71.44884882 -31.8125 72.125 C-38.483324 64.01537082 -38.61363436 53.16738849 -37.8125 43.125 C-35.78246463 28.60384613 -27.94900648 15.28242608 -16.4140625 6.24609375 C-11.20296241 2.65372409 -6.49115534 -0.19376583 0 0 Z " fill="#A04124" transform="translate(128.8125,77.875)"/>
<path d="M0 0 C1.06486855 0.89301656 2.12675041 1.7895947 3.1875 2.6875 C3.77917969 3.18636719 4.37085938 3.68523437 4.98046875 4.19921875 C7.41878292 6.37342152 9.69353582 8.68659909 12 11 C13.77944351 12.67971069 15.57139259 14.34626255 17.375 16 C18.32632812 16.87785156 19.27765625 17.75570313 20.2578125 18.66015625 C22.55292088 20.61851796 24.6290414 22.00070944 27.25 23.4375 C30 26 30 26 30.3046875 28.42578125 C30.11649301 31.38370776 29.65446279 34.11011309 29 37 C28.80664062 37.87269531 28.61328125 38.74539063 28.4140625 39.64453125 C27.19395912 44.08714295 27.19395912 44.08714295 26 46 C20.18647448 49.2113791 13.41292362 48.78058672 7 48 C0.93052175 45.87809387 -4.9011291 43.08991246 -9 38 C-10.77046721 26.38130895 -3.51283601 11.08038168 0 0 Z " fill="#C85734" transform="translate(346,413)"/>
<path d="M0 0 C2.29344815 2.90053737 4.04833459 5.84594811 5.75 9.125 C16.00517521 28.09833399 30.56057071 41.24122329 49 52 C48.81824219 52.54785156 48.63648438 53.09570312 48.44921875 53.66015625 C46.32315313 60.36544013 44.96878999 67.05786 43.74609375 73.97265625 C43.49988281 74.97167969 43.25367188 75.97070312 43 77 C42.01 77.495 42.01 77.495 41 78 C22.60126938 64.80495076 11.59881933 49.12056895 4 28 C3.649375 27.03449219 3.29875 26.06898437 2.9375 25.07421875 C0.36872563 16.93564994 0.28784797 8.46670062 0 0 Z " fill="#D5D4D8" transform="translate(34,45)"/>
<path d="M0 0 C2.90942474 2.90942474 3.09318459 6.40501606 3.875 10.3125 C5.30101924 17.16601831 7.03900371 23.690847 9.36328125 30.30078125 C10.08037074 33.34071276 9.99599547 35.05145897 9 38 C4.89251068 43.33848 -1.5914753 46.43110806 -8 48 C-13.43920431 48.56354969 -18.57567076 48.94068124 -23.73828125 46.9375 C-26.83197779 44.28728673 -27.50164548 41.38984777 -28.375 37.5625 C-28.63990234 36.55993164 -28.63990234 36.55993164 -28.91015625 35.53710938 C-30.54650358 28.93281156 -30.54650358 28.93281156 -29 26 C-27.01867211 24.1001364 -25.07279901 22.3941384 -22.9375 20.6875 C-21.74446832 19.70612212 -20.55175906 18.72435215 -19.359375 17.7421875 C-18.77994141 17.27006836 -18.20050781 16.79794922 -17.60351562 16.31152344 C-11.37829506 11.21988445 -5.61701217 5.75146193 0 0 Z " fill="#B04D2E" transform="translate(168,413)"/>
<path d="M0 0 C0.25652344 1.11890625 0.51304688 2.2378125 0.77734375 3.390625 C4.35775386 18.53468357 9.10747522 33.24085692 14 48 C9.95857785 48.11662261 5.91759135 48.1873935 1.875 48.25 C0.73289062 48.28351563 -0.40921875 48.31703125 -1.5859375 48.3515625 C-8.0352987 48.42655507 -12.14592313 48.44341047 -17 44 C-21.86474244 38.4642586 -21.20623295 32.98019225 -21 26 C-21.03625488 24.99453125 -21.03625488 24.99453125 -21.07324219 23.96875 C-21.25172882 18.85058797 -21.40439718 13.64440125 -19 9 C-14.4755549 4.71294469 -6.39750667 0 0 0 Z " fill="#D86340" transform="translate(125,449)"/>
<path d="M0 0 C2.80486839 1.18321001 5.5911048 2.39417817 8.375 3.625 C9.56609375 4.12193359 9.56609375 4.12193359 10.78125 4.62890625 C16.63844949 7.25968229 16.63844949 7.25968229 18.4765625 11.0234375 C18.64929688 12.00570313 18.82203125 12.98796875 19 14 C19.25632202 14.9422644 19.25632202 14.9422644 19.51782227 15.90356445 C20.41830099 19.81870918 20.26897922 23.81149008 20.3125 27.8125 C20.34150391 28.68970703 20.37050781 29.56691406 20.40039062 30.47070312 C20.45922252 36.52133758 19.73663636 40.16034329 16 45 C10.60262835 49.19700981 4.1374929 48.33708023 -2.375 48.1875 C-4.05142578 48.16719727 -4.05142578 48.16719727 -5.76171875 48.14648438 C-8.50831211 48.11127164 -11.25390289 48.06202096 -14 48 C-11.56893204 38.80982643 -8.79357734 29.74484171 -5.9609375 20.671875 C-3.83260127 13.81570792 -1.83592621 6.94035742 0 0 Z " fill="#E07656" transform="translate(390,449)"/>
<path d="M0 0 C0.33 0 0.66 0 1 0 C2.94466694 19.23059526 -6.52029801 42.08476676 -18 57 C-20.88060964 60.45673156 -23.88691979 63.75230011 -27 67 C-27.64324219 67.69480469 -28.28648437 68.38960938 -28.94921875 69.10546875 C-32.16595029 72.48966571 -34.52711322 74.41775434 -39 76 C-39.38091797 74.42412109 -39.38091797 74.42412109 -39.76953125 72.81640625 C-41.5735804 65.43140971 -43.44014513 58.16759364 -46 51 C-45.26136719 50.52691406 -44.52273438 50.05382812 -43.76171875 49.56640625 C-23.90416005 36.62240674 -10.13712113 21.59011857 0 0 Z " fill="#D6D5D9" transform="translate(477,45)"/>
<path d="M0 0 C8.58 0 17.16 0 26 0 C26.28875 4.021875 26.5775 8.04375 26.875 12.1875 C27.48053427 20.35664333 28.13598125 28.42451441 29.6328125 36.484375 C30.05097286 39.34921829 30.05917556 42.10885132 30 45 C29.41992188 44.7834375 28.83984375 44.566875 28.2421875 44.34375 C23.73441919 42.7370207 19.85550299 41.40786549 15 42 C14.34 42.66 13.68 43.32 13 44 C10.28340089 43.80395677 9.13878423 43.12556668 7.11328125 41.29296875 C6.51902344 40.59816406 5.92476562 39.90335938 5.3125 39.1875 C4.71050781 38.50042969 4.10851562 37.81335938 3.48828125 37.10546875 C1.98868667 34.98399506 1.28165196 33.57278234 1 31 C1.474375 30.38125 1.94875 29.7625 2.4375 29.125 C4.56370895 26.23335582 4.24224676 24.55295241 4 21 C3.09558764 17.74573052 1.99157807 14.6009624 0.875 11.4140625 C0 8 0 8 0 0 Z " fill="#FDBE9C" transform="translate(147,208)"/>
<path d="M0 0 C1.72221268 -0.01913956 1.72221268 -0.01913956 3.47921753 -0.03866577 C4.72502594 -0.04089142 5.97083435 -0.04311707 7.25439453 -0.04541016 C8.52944855 -0.05206696 9.80450256 -0.05872375 11.11819458 -0.06558228 C13.8201489 -0.07572501 16.5217011 -0.08126205 19.22363281 -0.08007812 C22.68293535 -0.07987504 26.14141531 -0.10715913 29.60052299 -0.14162254 C32.90178279 -0.16923649 36.20303488 -0.16804087 39.50439453 -0.17041016 C40.74615448 -0.18478119 41.98791443 -0.19915222 43.26730347 -0.21395874 C44.99897263 -0.20472885 44.99897263 -0.20472885 46.765625 -0.1953125 C47.78107391 -0.19816254 48.79652283 -0.20101257 49.84274292 -0.20394897 C53.23892166 0.42513982 54.44494503 1.56787174 56.51220703 4.29052734 C56.51220703 7.35302734 56.51220703 7.35302734 55.51220703 10.29052734 C52.43219249 13.26566831 50.19525082 13.67119978 45.98095703 13.69458008 C44.3190332 13.71360634 44.3190332 13.71360634 42.62353516 13.73301697 C41.43179688 13.73008133 40.24005859 13.72714569 39.01220703 13.72412109 C37.784375 13.72936295 36.55654297 13.7346048 35.29150391 13.74000549 C32.69580848 13.74642834 30.10008395 13.74508536 27.50439453 13.73657227 C23.52730662 13.72805966 19.55165311 13.75682756 15.57470703 13.78857422 C13.05387413 13.79018618 10.53303868 13.78960879 8.01220703 13.78662109 C6.22459961 13.80347206 6.22459961 13.80347206 4.40087891 13.82066345 C3.29292969 13.8112825 2.18498047 13.80190155 1.04345703 13.79223633 C0.06957031 13.79207016 -0.90431641 13.79190399 -1.90771484 13.79173279 C-5.24950957 13.14255643 -6.46407669 11.98868443 -8.48779297 9.29052734 C-8.24561997 2.26751032 -6.99606 0.05260613 0 0 Z " fill="#9B381D" transform="translate(233.48779296875,430.70947265625)"/>
<path d="M0 0 C2.23143901 1.38234365 4.19995589 2.89516268 6.203125 4.58984375 C9.67855126 7.31729784 13.33300135 7.38712091 17.578125 7.359375 C22.58319294 6.6166875 26.49644051 3.50355949 30 0 C36.96019496 -0.55239643 36.96019496 -0.55239643 40 1.0625 C41.6709786 4.30002104 41.5388767 6.40748866 41 10 C37.74134966 15.71755866 32.95060572 18.59803136 27 21 C26.071875 21.4125 25.14375 21.825 24.1875 22.25 C16.27028766 24.11287349 8.33400852 23.59984301 1 20 C-3.70671553 17.08552135 -8.06821067 13.76415766 -11 9 C-11.5 6.4375 -11.5 6.4375 -11 4 C-7.98832489 -0.45727916 -5.17028572 -0.86171429 0 0 Z " fill="#040302" transform="translate(242,273)"/>
<path d="M0 0 C0.53354435 14.16856666 0.2400356 25.75027656 -8.33984375 37.6875 C-10.29688241 40.41353973 -12.08357883 43.22517839 -13.875 46.0625 C-14.76832031 47.47208984 -14.76832031 47.47208984 -15.6796875 48.91015625 C-16.11539063 49.59980469 -16.55109375 50.28945312 -17 51 C-20.7436766 47.96940466 -22.62296465 43.67293446 -23.28417969 38.98535156 C-23.40165668 36.85570451 -23.41694794 34.7573938 -23.375 32.625 C-23.36412354 31.87476563 -23.35324707 31.12453125 -23.34204102 30.3515625 C-23.05280194 20.29259149 -20.10542549 13.28272018 -13 6 C-8.69310133 2.47023145 -5.67442915 0 0 0 Z " fill="#F8BA99" transform="translate(101,204)"/>
<path d="M0 0 C5.90199585 1.36241188 10.2046875 4.5353824 13.78125 9.4453125 C15.29316306 11.92811091 16.70499437 14.39761607 18 17 C18.37769531 17.75539062 18.75539063 18.51078125 19.14453125 19.2890625 C20.30294118 22.96000537 20.33917701 26.50143881 20.3125 30.3125 C20.31121094 31.06781006 20.30992187 31.82312012 20.30859375 32.60131836 C20.21553356 37.98077907 19.47303951 42.15696429 17 47 C16.34 47 15.68 47 15 47 C12.40625353 43.85809061 10.23795363 40.40113119 8 37 C7.43152344 36.15050781 6.86304688 35.30101562 6.27734375 34.42578125 C-0.83327413 23.29687809 -0.24875349 12.81080494 0 0 Z " fill="#FAD0B9" transform="translate(414,205)"/>
<path d="M0 0 C3.67456788 2.80172331 4.88599917 4.21474954 5.55859375 8.84765625 C5.54410454 10.25310921 5.50313127 11.65850553 5.4375 13.0625 C5.43169922 13.76955078 5.42589844 14.47660156 5.41992188 15.20507812 C5.33318363 18.90012748 5.17770516 21.94241396 3 25 C0 27 0 27 -3.5 26.875 C-7 26 -7 26 -8.69140625 24.5078125 C-10.66267239 20.73004277 -10.47439027 17.19878351 -10.4375 13 C-10.45748047 12.19304687 -10.47746094 11.38609375 -10.49804688 10.5546875 C-10.49486396 6.69699439 -10.47713871 4.65404396 -8.15625 1.47265625 C-5.16187039 -0.57241823 -3.55510628 -0.6529787 0 0 Z " fill="#070605" transform="translate(321,215)"/>
<path d="M0 0 C3.67456788 2.80172331 4.88599917 4.21474954 5.55859375 8.84765625 C5.54410454 10.25310921 5.50313127 11.65850553 5.4375 13.0625 C5.43169922 13.76955078 5.42589844 14.47660156 5.41992188 15.20507812 C5.33318363 18.90012748 5.17770516 21.94241396 3 25 C0 27 0 27 -3.5 26.875 C-7 26 -7 26 -8.69140625 24.5078125 C-10.66267239 20.73004277 -10.47439027 17.19878351 -10.4375 13 C-10.45748047 12.19304687 -10.47746094 11.38609375 -10.49804688 10.5546875 C-10.49486396 6.69699439 -10.47713871 4.65404396 -8.15625 1.47265625 C-5.16187039 -0.57241823 -3.55510628 -0.6529787 0 0 Z " fill="#070505" transform="translate(199,215)"/>
<path d="M0 0 C0.07329796 4.39787789 0.07396066 7.70415737 -1 12 C-8.92 12 -16.84 12 -25 12 C-25 8.37 -25 4.74 -25 1 C-21.95843125 0.83135856 -18.91676547 0.66502247 -15.875 0.5 C-15.0190625 0.45230469 -14.163125 0.40460938 -13.28125 0.35546875 C-8.84778214 0.11674356 -4.44201651 -0.05825595 0 0 Z " fill="#F2B595" transform="translate(270,404)"/>
<path d="M0 0 C5.28 0 10.56 0 16 0 C16 6 16 6 14.4375 8.875 C12 11 12 11 8.5 11.5625 C5 11 5 11 2.625 9.4375 C1 7 1 7 0 0 Z " fill="#FABB99" transform="translate(249,459)"/>
</svg>
